PathFileType	4	(X/Y/Z)	..\data\SUBJ01\dynamic\walk.trc
DataRate	CameraRate	NumFrames	NumMarkers	Units	OrigDataRate	OrigDataStartFrame	OrigNumFrames
100.000000	100.000000	6	33	mm	100.000000	92	337
Frame#	Time	LFHD			RFHD			LBHD			RBHD			C7			T10			CLAV			STRN			LSHO			LELB			LWRA			LWRB			LFIN			RSHO			RELB			RWRA			RWRB			RFIN			LASI			RASI			SACR			LTHI			LKNE			LTIB			LANK			LHEE			LTOE			RTHI			RKNE			RTIB			RANK			RHEE			RTOE			
		X1	Y1	Z1	X2	Y2	Z2	X3	Y3	Z3	X4	Y4	Z4	X5	Y5	Z5	X6	Y6	Z6	X7	Y7	Z7	X8	Y8	Z8	X9	Y9	Z9	X10	Y10	Z10	X11	Y11	Z11	X12	Y12	Z12	X13	Y13	Z13	X14	Y14	Z14	X15	Y15	Z15	X16	Y16	Z16	X17	Y17	Z17	X18	Y18	Z18	X19	Y19	Z19	X20	Y20	Z20	X21	Y21	Z21	X22	Y22	Z22	X23	Y23	Z23	X24	Y24	Z24	X25	Y25	Z25	X26	Y26	Z26	X27	Y27	Z27	X28	Y28	Z28	X29	Y29	Z29	X30	Y30	Z30	X31	Y31	Z31	X32	Y32	Z32	X33	Y33	Z33	

93	1.87	1073.82421875	1545.891235351563	-245.8455810546876	1057.015380859375	1518.198486328125	-125.0980072021485	920.4866943359377	1471.41845703125	-266.3054199218751	906.9582519531252	1450.333374023438	-135.4688720703125	872.682556152344	1357.451416015625	-191.4676055908203	812.021423339844	1134.372802734375	-200.1653442382813	1021.694091796875	1262.321411132813	-212.3496704101563	1084.218627929688	1107.161499023438	-205.1345367431641	914.286315917969	1321.323486328125	-369.6691589355469	836.2456665039065	1031.021850585938	-468.8098449707032	938.7174072265627	809.9744262695315	-471.1822509765626	884.2147216796877	796.4891357421877	-504.8410949707032	957.3065185546877	720.7110595703126	-494.2169799804689	958.2183227539065	1295.986938476563	-29.39009857177735	973.452819824219	1018.652648925781	96.423698425293	1148.915649414063	850.9932861328127	36.91675186157227	1104.132934570313	815.698425292969	89.91448974609376	1208.268676757813	789.0723266601565	57.6981658935547	1017.458312988281	864.8906860351565	-323.8310546875001	999.9317016601565	873.3154296875002	-48.1648292541504	831.275817871094	876.647399902344	-195.1905364990235	1045.505615234375	609.7329711914064	-409.410125732422	1114.898315429688	453.1155700683595	-327.5618286132813	1093.748046875	221.4557800292969	-365.9019165039063	1100.959106445313	89.5790481567383	-306.5141296386719	1038.545043945313	76.82384490966798	-272.6444091796876	1203.915283203125	71.37356567382814	-267.6918640136719	933.494323730469	582.4625854492189	-11.07386112213135	914.8931274414065	406.9115600585939	-100.4875030517578	864.1407470703127	174.6594390869141	-82.74199676513673	823.1860961914065	63.18371963500978	-145.3429107666016	767.8673706054689	60.14505004882814	-196.8403015136719	932.1262207031252	40.92645645141602	-167.0382080078125	
94	1.88	1084.605102539063	1544.518920898438	-246.271713256836	1067.937377929688	1516.8837890625	-125.4953155517578	931.270690917969	1469.975708007813	-266.5326538085938	917.891540527344	1448.942626953125	-135.6753540039063	883.529724121094	1356.04541015625	-191.6226806640625	822.8698730468752	1132.99951171875	-200.2827758789063	1032.5546875	1260.916015625	-212.4871978759766	1095.050537109375	1105.770629882813	-204.9569702148438	924.967224121094	1319.898315429688	-369.7909851074219	844.0878906250002	1030.34716796875	-468.4422302246095	944.4578857421877	808.344665527344	-473.0199584960939	889.220642089844	795.3951416015627	-505.6763610839845	961.7965087890627	718.8994750976564	-496.452850341797	968.922058105469	1294.88720703125	-29.4455738067627	985.882995605469	1018.236938476563	97.13495635986331	1163.984008789063	853.7778320312502	36.89770126342774	1120.039184570313	817.6492919921877	90.03305816650392	1224.533813476563	792.9577636718752	57.43016052246095	1028.451782226563	863.3021240234377	-323.6107177734376	1010.266723632813	871.738708496094	-47.93460083007813	842.0681762695315	875.400085449219	-195.2869415283204	1053.551513671875	607.2767333984376	-409.0868530273439	1123.239379882813	450.3850708007814	-326.7463378906251	1116.758422851563	216.5885772705079	-364.4392700195313	1134.482666015625	85.4463348388672	-304.5693054199219	1073.152587890625	68.40347290039064	-270.4450378417969	1238.897583007813	74.20406341552736	-266.1611328125001	940.5037841796877	581.4440917968751	-10.87550354003906	919.4058837890627	406.0689086914064	-100.4078063964844	865.7498168945315	174.3182067871094	-82.87704467773439	823.5712890625002	63.49396896362306	-145.5998077392578	768.2487792968752	60.74791717529298	-197.1314392089844	932.244079589844	40.85847091674805	-167.1161193847657	
95	1.89	1095.445434570313	1543.012573242188	-246.7370300292969	1078.93310546875	1515.428344726563	-125.9311599731446	942.117614746094	1468.391357421875	-266.7896118164063	928.9072265625002	1447.406616210938	-135.9092254638672	894.4464111328127	1354.4970703125	-191.8126525878907	833.7849121093752	1131.488159179688	-200.4177398681641	1043.492431640625	1259.36181640625	-212.6585235595704	1105.951904296875	1104.231811523438	-204.8249969482422	935.734069824219	1318.3095703125	-369.9431152343751	852.381286621094	1029.498046875	-468.1917419433595	950.555114746094	806.530456542969	-474.7586975097657	894.7346191406252	794.1940917968752	-506.6298828125001	966.6694335937502	716.9196166992189	-498.5864868164064	979.7122802734377	1293.647338867188	-29.54129219055176	998.165466308594	1017.610900878906	97.71411132812503	1178.70361328125	856.1721801757815	36.85502243041993	1135.533935546875	819.2850341796877	90.10134124755861	1240.341796875	796.4011840820315	57.18228149414064	1039.473022460938	861.5781250000002	-323.4644470214844	1020.700561523438	870.022399902344	-47.76475524902344	852.9155883789065	874.0086669921877	-195.418197631836	1060.56689453125	604.2366943359376	-408.7394104003907	1131.232055664063	447.4128417968751	-325.8560791015626	1138.748168945313	212.3464050292969	-362.8941345214844	1166.63134765625	82.48380279541017	-302.6392822265626	1106.624389648438	61.42002105712892	-268.0752258300782	1272.1787109375	77.83941650390626	-264.9530334472657	947.7857055664065	580.2753295898439	-10.75635719299317	924.2918090820315	405.1346435546876	-100.4039077758789	867.5118408203127	173.9523162841797	-83.06442260742189	823.948425292969	63.81088638305665	-145.8894195556641	768.6702270507815	61.44956970214845	-197.4547576904297	932.3919067382815	40.83317184448243	-167.226806640625	
96	1.9	1106.353271484375	1541.387939453125	-247.2391204833985	1090.003784179688	1513.849609375	-126.403190612793	953.034118652344	1466.686157226563	-267.0797119140626	940.0054931640627	1445.749633789063	-136.1740417480469	905.4346313476565	1352.82275390625	-192.0396118164063	844.7727050781252	1129.85595703125	-200.5658569335938	1054.50927734375	1257.678466796875	-212.8677673339844	1116.92724609375	1102.5625	-204.7417449951172	946.5765380859377	1316.567260742188	-370.1309204101563	861.1082153320315	1028.467529296875	-468.0667114257814	957.033630371094	804.542663574219	-476.4213867187501	900.7617187500002	792.8796997070315	-507.7102355957032	971.9567871093752	714.7860107421876	-500.6452941894532	990.6009521484377	1292.28076171875	-29.68353843688966	1010.308410644531	1016.780212402344	98.1603927612305	1193.073120117188	858.1525878906252	36.79021835327149	1150.606567382813	820.5803222656252	90.11769104003908	1255.685668945313	799.3642578125002	56.95443725585939	1050.5302734375	859.7386474609377	-323.3838500976563	1031.23486328125	868.1829833984377	-47.64973831176759	863.8187255859377	872.494079589844	-195.5925598144532	1066.63623046875	600.6633300781251	-408.3573608398439	1139.114135742188	444.3258361816407	-324.8836975097657	1159.553466796875	208.7242126464844	-361.2529296875001	1196.96728515625	80.56552124023439	-300.7192382812501	1138.450317382813	55.83964920043947	-265.5280761718751	1303.37353515625	82.01219940185548	-264.0495910644532	955.3608398437502	578.9602050781251	-10.72636699676514	929.5775146484377	404.1048889160157	-100.4768218994141	869.437194824219	173.5733184814453	-83.30554962158205	824.3190917968752	64.15473937988283	-146.2088317871094	769.1299438476565	62.28124618530275	-197.8040161132813	932.569274902344	40.84497070312501	-167.3654174804688	
97	1.91	1117.337890625	1539.663208007813	-247.7744293212891	1101.150512695313	1512.16748046875	-126.9082489013672	964.028015136719	1464.8837890625	-267.4073181152344	951.185241699219	1443.9970703125	-136.4751129150391	916.496276855469	1351.042236328125	-192.305648803711	855.8389892578127	1128.12353515625	-200.7233123779297	1065.6064453125	1255.888061523438	-213.1194000244141	1127.980590820313	1100.78271484375	-204.7110595703126	957.4868164062502	1314.686157226563	-370.3596191406251	870.2478637695315	1027.255004882813	-468.0706787109376	963.9140625000002	802.3985595703127	-478.0368957519532	907.3001098632815	791.4497680664065	-508.9198608398439	977.684753417969	712.5184936523439	-502.6611633300782	1001.597351074219	1290.801635742188	-29.87683105468751	1022.31884765625	1015.752380371094	98.47322082519534	1207.092407226563	859.6975097656252	36.70455169677735	1165.247680664063	821.5112915039065	90.08010864257814	1270.560302734375	801.8112792968752	56.74688720703126	1061.629516601563	857.804870605469	-323.3625183105469	1041.873901367188	866.2383422851565	-47.58410644531251	874.7805786132815	870.8800048828127	-195.8132629394532	1071.932250976563	596.6466674804689	-407.9315185546876	1147.1220703125	441.2484130859376	-323.8358764648438	1179.035034179688	205.6731262207032	-359.5094604492188	1225.084838867188	79.48998260498048	-298.7961120605469	1168.14013671875	51.54813766479494	-262.8112487792969	1332.1298828125	86.38498687744142	-263.3914489746094	963.2427368164065	577.5084838867189	-10.79087924957276	935.2875976562502	402.9795532226564	-100.6221771240235	871.5362548828127	173.1979064941407	-83.59677124023439	824.6914672851565	64.55640411376955	-146.5486145019532	769.6254882812502	63.27928161621095	-198.166244506836	932.7755126953127	40.88754272460938	-167.524398803711	
98	1.92	1128.408813476563	1537.85986328125	-248.3384094238282	1112.37353515625	1510.40478515625	-127.4425277709961	975.1076660156252	1463.010009765625	-267.7776489257813	962.4439086914065	1442.175170898438	-136.8195495605469	927.6329345703127	1349.1787109375	-192.6125488281251	866.9893188476565	1126.314697265625	-200.887191772461	1076.784545898438	1254.015991210938	-213.4181213378907	1139.116577148438	1098.916015625	-204.7378997802735	968.4605102539065	1312.6865234375	-370.6342468261719	879.777770996094	1025.866821289063	-468.2026977539064	971.2133789062502	800.1215820312502	-479.636932373047	914.3430175781252	789.908142089844	-510.2555541992189	983.874694824219	710.1419677734376	-504.6679687500001	1012.708435058594	1289.225708007813	-30.12420463562012	1034.203735351563	1014.5380859375	98.65168762207034	1220.761596679688	860.788024902344	36.59878540039063	1179.448120117188	822.0569458007815	89.98632049560548	1284.96240234375	803.7100219726565	56.56030654907228	1072.77734375	855.800231933594	-323.3966979980469	1052.62451171875	864.2077636718752	-47.56300735473634	885.807800292969	869.1919555664065	-196.0785827636719	1076.721557617188	592.3144531250001	-407.4549560546876	1155.4677734375	438.2907104492189	-322.7318115234376	1197.08740234375	203.1078491210938	-357.6668090820313	1250.64208984375	79.0006561279297	-296.8526306152344	1195.260009765625	48.3648147583008	-259.9491577148438	1358.156616210938	90.57833099365236	-262.8834838867188	971.4393310546877	575.9353637695314	-10.95067405700684	941.4434204101565	401.7627258300782	-100.829574584961	873.819519042969	172.8484191894532	-83.9280242919922	825.0788574218752	65.05549621582033	-146.8921356201172	770.155456542969	64.48537445068361	-198.5208892822266	933.0108032226565	40.95458984375001	-167.6944427490235	
